# xmcd
#
# Track frame offsets:
#	150
#	25417
#	52296
#	73781
#	112637
#	132277
#	160847
#	184877
#	209152
#	233077
#
# Disc length: 3710 seconds
#
# Revision: 3
# Processed by: cddbd v1.5.2PL0 Copyright (c) Steve Scherf et al.
# Submitted via: audiograbber 1.83.01
#
DISCID=920e7c0a
DTITLE=Klaus Major Heuser - Men in Trouble
DYEAR=2013
DGENRE=Rock
TTITLE0=The Journey
TTITLE1=In Your Own Time
TTITLE2=Five Long Days
TTITLE3=Day on The Beach
TTITLE4=Higher Faster Stronger
TTITLE5=Better World
TTITLE6=Care for the World
TTITLE7=I´ll be on Your Side
TTITLE8=Cruisin´
TTITLE9=Last Favourite Song
EXTD=
EXTT0=
EXTT1=
EXTT2=
EXTT3=
EXTT4=
EXTT5=
EXTT6=
EXTT7=
EXTT8=
EXTT9=
PLAYORDER=
